<mxfile host="app.diagrams.net" modified="2024-02-29T08:26:00.674Z" agent="Mozilla/5.0 (Windows NT 10.0; Win64; x64) AppleWebKit/537.36 (KHTML, like Gecko) Chrome/121.0.0.0 Safari/537.36 Edg/121.0.0.0" etag="FHsKm_Akcvy-EJA1UxbR" version="23.1.8" type="github">
  <diagram id="C5RBs43oDa-KdzZeNtuy" name="Page-1">
    <mxGraphModel dx="1426" dy="793" grid="1" gridSize="10" guides="1" tooltips="1" connect="1" arrows="1" fold="1" page="1" pageScale="1" pageWidth="827" pageHeight="1169" math="0" shadow="0">
      <root>
        <mxCell id="WIyWlLk6GJQsqaUBKTNV-0" />
        <mxCell id="WIyWlLk6GJQsqaUBKTNV-1" parent="WIyWlLk6GJQsqaUBKTNV-0" />
        <mxCell id="zC8_6s-sbMNwt-oXkP13-101" style="edgeStyle=orthogonalEdgeStyle;rounded=0;orthogonalLoop=1;jettySize=auto;html=1;strokeColor=#0B4D6A;" edge="1" parent="WIyWlLk6GJQsqaUBKTNV-1" source="zC8_6s-sbMNwt-oXkP13-88" target="zC8_6s-sbMNwt-oXkP13-98">
          <mxGeometry relative="1" as="geometry">
            <Array as="points">
              <mxPoint x="385" y="370" />
              <mxPoint x="621" y="370" />
            </Array>
          </mxGeometry>
        </mxCell>
        <mxCell id="zC8_6s-sbMNwt-oXkP13-88" value="User Authentication&lt;br style=&quot;border-color: var(--border-color);&quot;&gt;&lt;span style=&quot;&quot;&gt;- parent&#39;s login&lt;/span&gt;&lt;br style=&quot;border-color: var(--border-color);&quot;&gt;&lt;span style=&quot;&quot;&gt;- children&#39;s login&lt;/span&gt;" style="shape=ext;double=1;rounded=1;whiteSpace=wrap;html=1;strokeColor=#BAC8D3;fontColor=#EEEEEE;fillColor=#09555B;" vertex="1" parent="WIyWlLk6GJQsqaUBKTNV-1">
          <mxGeometry x="320" y="250" width="130" height="90" as="geometry" />
        </mxCell>
        <mxCell id="zC8_6s-sbMNwt-oXkP13-44" value="&lt;font size=&quot;1&quot; style=&quot;&quot;&gt;&lt;i style=&quot;font-size: 22px;&quot;&gt;Plan, 28.2.24&lt;/i&gt;&lt;/font&gt;" style="text;html=1;align=center;verticalAlign=middle;resizable=0;points=[];autosize=1;strokeColor=none;fillColor=none;labelBackgroundColor=none;fontColor=#EEEEEE;" vertex="1" parent="WIyWlLk6GJQsqaUBKTNV-1">
          <mxGeometry x="60" y="90" width="150" height="40" as="geometry" />
        </mxCell>
        <mxCell id="zC8_6s-sbMNwt-oXkP13-52" value="&lt;font style=&quot;font-size: 26px;&quot;&gt;&lt;b&gt;&amp;nbsp;BoniHabitus&amp;nbsp;&lt;/b&gt;&lt;b style=&quot;border-color: var(--border-color);&quot;&gt;application&#39;s&lt;/b&gt;&lt;b&gt;&lt;br&gt;&amp;nbsp;architecture&lt;/b&gt;&lt;/font&gt;" style="text;html=1;align=center;verticalAlign=middle;resizable=0;points=[];autosize=1;strokeColor=none;fillColor=none;labelBackgroundColor=none;fontColor=#EEEEEE;" vertex="1" parent="WIyWlLk6GJQsqaUBKTNV-1">
          <mxGeometry x="249" y="15" width="350" height="80" as="geometry" />
        </mxCell>
        <mxCell id="zC8_6s-sbMNwt-oXkP13-56" value="" style="edgeStyle=orthogonalEdgeStyle;rounded=0;orthogonalLoop=1;jettySize=auto;html=1;labelBackgroundColor=none;strokeColor=#0B4D6A;fontColor=default;" edge="1" parent="WIyWlLk6GJQsqaUBKTNV-1" source="zC8_6s-sbMNwt-oXkP13-57" target="zC8_6s-sbMNwt-oXkP13-59">
          <mxGeometry relative="1" as="geometry" />
        </mxCell>
        <mxCell id="zC8_6s-sbMNwt-oXkP13-57" value="FOR EACH&amp;nbsp;&amp;nbsp;&lt;br&gt;Populate my Word document (Cover Letter.docx)&amp;nbsp;&lt;br&gt;with Excel Data" style="rhombus;whiteSpace=wrap;html=1;shadow=0;fontFamily=Helvetica;fontSize=12;align=center;strokeWidth=1;spacing=6;spacingTop=-4;labelBackgroundColor=none;fillColor=#09555B;strokeColor=#BAC8D3;fontColor=#EEEEEE;" vertex="1" parent="WIyWlLk6GJQsqaUBKTNV-1">
          <mxGeometry x="82.5" y="720" width="200" height="132" as="geometry" />
        </mxCell>
        <mxCell id="zC8_6s-sbMNwt-oXkP13-58" value="" style="edgeStyle=orthogonalEdgeStyle;rounded=0;orthogonalLoop=1;jettySize=auto;html=1;labelBackgroundColor=none;strokeColor=#0B4D6A;fontColor=default;" edge="1" parent="WIyWlLk6GJQsqaUBKTNV-1" source="zC8_6s-sbMNwt-oXkP13-59" target="zC8_6s-sbMNwt-oXkP13-60">
          <mxGeometry relative="1" as="geometry" />
        </mxCell>
        <mxCell id="zC8_6s-sbMNwt-oXkP13-59" value="Convert &lt;br&gt;CL.docx to PDF&amp;nbsp;" style="rounded=1;whiteSpace=wrap;html=1;fontSize=12;glass=0;strokeWidth=1;shadow=0;labelBackgroundColor=none;fillColor=#09555B;strokeColor=#BAC8D3;fontColor=#EEEEEE;" vertex="1" parent="WIyWlLk6GJQsqaUBKTNV-1">
          <mxGeometry x="80" y="890" width="205" height="80" as="geometry" />
        </mxCell>
        <mxCell id="zC8_6s-sbMNwt-oXkP13-60" value="Send by email&amp;nbsp; to potential employer" style="rounded=1;whiteSpace=wrap;html=1;labelBackgroundColor=none;fillColor=#09555B;strokeColor=#BAC8D3;fontColor=#EEEEEE;" vertex="1" parent="WIyWlLk6GJQsqaUBKTNV-1">
          <mxGeometry x="81.25" y="1020" width="202.5" height="80" as="geometry" />
        </mxCell>
        <mxCell id="zC8_6s-sbMNwt-oXkP13-61" value="" style="edgeStyle=orthogonalEdgeStyle;rounded=0;orthogonalLoop=1;jettySize=auto;html=1;labelBackgroundColor=none;strokeColor=#0B4D6A;fontColor=default;" edge="1" parent="WIyWlLk6GJQsqaUBKTNV-1" source="zC8_6s-sbMNwt-oXkP13-62" target="zC8_6s-sbMNwt-oXkP13-57">
          <mxGeometry relative="1" as="geometry">
            <Array as="points">
              <mxPoint x="183" y="660" />
              <mxPoint x="183" y="660" />
            </Array>
          </mxGeometry>
        </mxCell>
        <mxCell id="zC8_6s-sbMNwt-oXkP13-62" value="Mobile App" style="swimlane;whiteSpace=wrap;html=1;labelBackgroundColor=none;fillColor=#09555B;strokeColor=#BAC8D3;fontColor=#EEEEEE;" vertex="1" parent="WIyWlLk6GJQsqaUBKTNV-1">
          <mxGeometry x="75" y="390" width="677.5" height="260" as="geometry" />
        </mxCell>
        <mxCell id="zC8_6s-sbMNwt-oXkP13-64" value="Save" style="rounded=1;whiteSpace=wrap;html=1;fontColor=#EEEEEE;strokeColor=#BAC8D3;labelBackgroundColor=none;fillColor=#09555B;" vertex="1" parent="zC8_6s-sbMNwt-oXkP13-62">
          <mxGeometry x="526.25" y="170" width="132.5" height="35" as="geometry" />
        </mxCell>
        <mxCell id="zC8_6s-sbMNwt-oXkP13-72" value="" style="rounded=1;whiteSpace=wrap;html=1;labelBackgroundColor=none;fillColor=#09555B;strokeColor=#BAC8D3;fontColor=#EEEEEE;" vertex="1" parent="zC8_6s-sbMNwt-oXkP13-62">
          <mxGeometry x="10" y="33" width="490" height="107" as="geometry" />
        </mxCell>
        <mxCell id="zC8_6s-sbMNwt-oXkP13-73" value=" Dashboard&lt;br&gt;&amp;nbsp;- Overview of tasks&lt;br&gt;&amp;nbsp;- Rewards/Punishments&lt;br&gt;&amp;nbsp;- Progress tracking &lt;br&gt;- Leaderboard   " style="text;html=1;align=center;verticalAlign=middle;resizable=0;points=[];autosize=1;strokeColor=none;fillColor=none;labelBackgroundColor=none;fontColor=#EEEEEE;" vertex="1" parent="zC8_6s-sbMNwt-oXkP13-62">
          <mxGeometry x="151.25" y="46.5" width="150" height="90" as="geometry" />
        </mxCell>
        <mxCell id="zC8_6s-sbMNwt-oXkP13-74" value="task 1" style="rounded=1;whiteSpace=wrap;html=1;strokeColor=#BAC8D3;fontColor=#EEEEEE;fillColor=#09555B;" vertex="1" parent="zC8_6s-sbMNwt-oXkP13-62">
          <mxGeometry x="50" y="147" width="410" height="23" as="geometry" />
        </mxCell>
        <mxCell id="zC8_6s-sbMNwt-oXkP13-75" value="-" style="rounded=1;whiteSpace=wrap;html=1;strokeColor=#BAC8D3;fontColor=#EEEEEE;fillColor=#09555B;" vertex="1" parent="zC8_6s-sbMNwt-oXkP13-62">
          <mxGeometry x="470" y="147" width="30" height="23" as="geometry" />
        </mxCell>
        <mxCell id="zC8_6s-sbMNwt-oXkP13-76" value="+" style="rounded=1;whiteSpace=wrap;html=1;strokeColor=#BAC8D3;fontColor=#EEEEEE;fillColor=#09555B;" vertex="1" parent="zC8_6s-sbMNwt-oXkP13-62">
          <mxGeometry x="10" y="147" width="30" height="23" as="geometry" />
        </mxCell>
        <mxCell id="zC8_6s-sbMNwt-oXkP13-77" value="task 2" style="rounded=1;whiteSpace=wrap;html=1;strokeColor=#BAC8D3;fontColor=#EEEEEE;fillColor=#09555B;" vertex="1" parent="zC8_6s-sbMNwt-oXkP13-62">
          <mxGeometry x="50" y="180" width="410" height="23" as="geometry" />
        </mxCell>
        <mxCell id="zC8_6s-sbMNwt-oXkP13-78" value="-" style="rounded=1;whiteSpace=wrap;html=1;strokeColor=#BAC8D3;fontColor=#EEEEEE;fillColor=#09555B;" vertex="1" parent="zC8_6s-sbMNwt-oXkP13-62">
          <mxGeometry x="470" y="180" width="30" height="23" as="geometry" />
        </mxCell>
        <mxCell id="zC8_6s-sbMNwt-oXkP13-79" value="+" style="rounded=1;whiteSpace=wrap;html=1;strokeColor=#BAC8D3;fontColor=#EEEEEE;fillColor=#09555B;" vertex="1" parent="zC8_6s-sbMNwt-oXkP13-62">
          <mxGeometry x="10" y="180" width="30" height="23" as="geometry" />
        </mxCell>
        <mxCell id="zC8_6s-sbMNwt-oXkP13-83" value="" style="shape=actor;whiteSpace=wrap;html=1;strokeColor=#BAC8D3;fontColor=#EEEEEE;fillColor=#09555B;" vertex="1" parent="zC8_6s-sbMNwt-oXkP13-62">
          <mxGeometry x="645" y="33" width="25" height="37.5" as="geometry" />
        </mxCell>
        <mxCell id="zC8_6s-sbMNwt-oXkP13-92" value="" style="html=1;verticalLabelPosition=bottom;align=center;labelBackgroundColor=#ffffff;verticalAlign=top;strokeWidth=2;strokeColor=#0080F0;shadow=0;dashed=0;shape=mxgraph.ios7.icons.bell;fontColor=#EEEEEE;fillColor=#09555B;" vertex="1" parent="zC8_6s-sbMNwt-oXkP13-62">
          <mxGeometry x="585" y="33" width="39" height="40" as="geometry" />
        </mxCell>
        <mxCell id="zC8_6s-sbMNwt-oXkP13-98" value="Login" style="rounded=1;whiteSpace=wrap;html=1;strokeColor=#BAC8D3;fontColor=#EEEEEE;fillColor=#09555B;" vertex="1" parent="zC8_6s-sbMNwt-oXkP13-62">
          <mxGeometry x="515" y="33" width="61.3" height="47" as="geometry" />
        </mxCell>
        <mxCell id="zC8_6s-sbMNwt-oXkP13-67" value="" style="edgeStyle=orthogonalEdgeStyle;rounded=0;orthogonalLoop=1;jettySize=auto;html=1;labelBackgroundColor=none;strokeColor=#0B4D6A;fontColor=default;" edge="1" parent="WIyWlLk6GJQsqaUBKTNV-1" source="zC8_6s-sbMNwt-oXkP13-68">
          <mxGeometry relative="1" as="geometry">
            <mxPoint x="188" y="420" as="targetPoint" />
          </mxGeometry>
        </mxCell>
        <mxCell id="zC8_6s-sbMNwt-oXkP13-68" value="SharePoint" style="swimlane;whiteSpace=wrap;html=1;strokeColor=#BAC8D3;labelBackgroundColor=none;fillColor=#09555B;fontColor=#EEEEEE;" vertex="1" parent="WIyWlLk6GJQsqaUBKTNV-1">
          <mxGeometry x="470" y="150" width="150" height="90" as="geometry" />
        </mxCell>
        <mxCell id="zC8_6s-sbMNwt-oXkP13-69" value="Satus" style="text;html=1;align=center;verticalAlign=middle;resizable=0;points=[];autosize=1;strokeColor=none;fillColor=none;fontColor=#EEEEEE;labelBackgroundColor=none;" vertex="1" parent="zC8_6s-sbMNwt-oXkP13-68">
          <mxGeometry x="19.28" y="30" width="50" height="30" as="geometry" />
        </mxCell>
        <mxCell id="zC8_6s-sbMNwt-oXkP13-102" style="edgeStyle=orthogonalEdgeStyle;rounded=0;orthogonalLoop=1;jettySize=auto;html=1;strokeColor=#0B4D6A;" edge="1" parent="WIyWlLk6GJQsqaUBKTNV-1" source="zC8_6s-sbMNwt-oXkP13-95" target="zC8_6s-sbMNwt-oXkP13-92">
          <mxGeometry relative="1" as="geometry">
            <Array as="points">
              <mxPoint x="535" y="360" />
              <mxPoint x="680" y="360" />
            </Array>
          </mxGeometry>
        </mxCell>
        <mxCell id="zC8_6s-sbMNwt-oXkP13-95" value="Notifications&lt;br style=&quot;border-color: var(--border-color);&quot;&gt;&lt;span style=&quot;&quot;&gt;- Reminders for&amp;nbsp;&lt;/span&gt;&lt;br style=&quot;border-color: var(--border-color);&quot;&gt;&lt;span style=&quot;&quot;&gt;&amp;nbsp;tasks or deadlines&lt;/span&gt;&lt;br style=&quot;border-color: var(--border-color);&quot;&gt;&lt;span style=&quot;&quot;&gt;- Notifications for&amp;nbsp;&lt;/span&gt;&lt;br style=&quot;border-color: var(--border-color);&quot;&gt;&lt;span style=&quot;&quot;&gt;&amp;nbsp;rewards and punishments&lt;/span&gt;" style="shape=ext;double=1;rounded=1;whiteSpace=wrap;html=1;strokeColor=#BAC8D3;fontColor=#EEEEEE;fillColor=#09555B;" vertex="1" parent="WIyWlLk6GJQsqaUBKTNV-1">
          <mxGeometry x="460" y="250" width="150" height="90" as="geometry" />
        </mxCell>
        <mxCell id="zC8_6s-sbMNwt-oXkP13-103" style="edgeStyle=orthogonalEdgeStyle;rounded=0;orthogonalLoop=1;jettySize=auto;html=1;entryX=0.5;entryY=0;entryDx=0;entryDy=0;strokeColor=#0B4D6A;" edge="1" parent="WIyWlLk6GJQsqaUBKTNV-1" source="zC8_6s-sbMNwt-oXkP13-99" target="zC8_6s-sbMNwt-oXkP13-83">
          <mxGeometry relative="1" as="geometry">
            <Array as="points">
              <mxPoint x="690" y="350" />
              <mxPoint x="733" y="350" />
            </Array>
          </mxGeometry>
        </mxCell>
        <mxCell id="zC8_6s-sbMNwt-oXkP13-99" value="Profile Settings&lt;br&gt;- Customize app settings&amp;nbsp;&lt;br&gt;&amp;nbsp;- Children view own progress and points " style="shape=ext;double=1;rounded=1;whiteSpace=wrap;html=1;strokeColor=#BAC8D3;fontColor=#EEEEEE;fillColor=#09555B;" vertex="1" parent="WIyWlLk6GJQsqaUBKTNV-1">
          <mxGeometry x="620" y="250" width="140" height="90" as="geometry" />
        </mxCell>
      </root>
    </mxGraphModel>
  </diagram>
</mxfile>
